<?xml version="1.0" encoding="utf-8"?>
<!-- Generator: Adobe Illustrator 16.0.0, SVG Export Plug-In . SVG Version: 6.00 Build 0)  -->
<!DOCTYPE svg PUBLIC "-//W3C//DTD SVG 1.1//EN" "http://www.w3.org/Graphics/SVG/1.1/DTD/svg11.dtd">
<svg version="1.1" id="Capa_1" xmlns="http://www.w3.org/2000/svg" xmlns:xlink="http://www.w3.org/1999/xlink" x="0px" y="0px"
	 width="250px" height="500px" viewBox="0 -125 250 500" enable-background="new 0 -125 250 500" xml:space="preserve">
<g>
	<path d="M244.382,296.182h-7.575v-42.371c0-4.959-1.498-9.821-4.271-13.938l-18.988-28.124
		c-4.646-6.857-12.378-10.975-20.672-10.975h-29.434c-3.461,0-6.233,2.806-6.233,6.234v89.172h-48.204
		c4.583,3.959,7.732,9.479,8.637,15.716h50.821c1.81-12.38,12.472-21.95,25.349-21.95c12.879,0,23.512,9.57,25.318,21.95h25.254
		c1.715,0,3.118-1.403,3.118-3.118v-9.479C247.5,297.586,246.098,296.182,244.382,296.182z M213.328,245.486h-38.85
		c-1.715,0-3.117-1.373-3.117-3.119v-21.544c0-1.715,1.402-3.118,3.117-3.118h23.664c1.03,0,1.967,0.499,2.559,1.309l15.184,21.576
		C217.318,242.648,215.854,245.486,213.328,245.486z M193.811,296.182c-10.727,0-19.394,8.699-19.394,19.425
		c0,10.694,8.667,19.394,19.394,19.394c10.693,0,19.395-8.699,19.395-19.394C213.204,304.883,204.504,296.182,193.811,296.182z
		 M193.811,325.303c-5.362,0-9.697-4.364-9.697-9.695c0-5.363,4.335-9.697,9.697-9.697s9.695,4.334,9.695,9.697
		C203.506,320.938,199.173,325.303,193.811,325.303z M32.117,296.182c-1.715,0-3.118,1.404-3.118,3.119v9.479
		c0,1.715,1.403,3.118,3.118,3.118h34.857c0.904-6.236,4.053-11.755,8.605-15.716H32.117L32.117,296.182z M92.292,296.182
		c-10.694,0-19.394,8.699-19.394,19.425c0,10.694,8.699,19.394,19.394,19.394c10.726,0,19.394-8.699,19.394-19.394
		C111.686,304.883,103.018,296.182,92.292,296.182z M92.292,325.303c-5.362,0-9.696-4.364-9.696-9.695
		c0-5.363,4.334-9.697,9.696-9.697s9.696,4.334,9.696,9.697C101.988,320.938,97.654,325.303,92.292,325.303z M138.936,181.444
		h-36.137c1.777,5.269,2.713,10.913,2.713,16.743c0,29.433-23.945,53.378-53.378,53.378c-5.362,0-10.569-0.812-15.465-2.276v34.453
		c0,1.715,1.403,3.118,3.119,3.118h105.384c1.715,0,3.117-1.403,3.117-3.118v-92.943
		C148.289,185.622,144.109,181.444,138.936,181.444z M52.141,151.037c-26.035,0-47.14,21.104-47.14,47.141
		c0,26.035,21.104,47.141,47.14,47.141c26.036,0,47.142-21.104,47.142-47.141C99.283,172.143,78.176,151.037,52.141,151.037z
		 M52.141,234.592c-20.109,0-36.412-16.304-36.412-36.414s16.303-36.414,36.412-36.414c20.11,0,36.414,16.305,36.414,36.414
		S72.251,234.592,52.141,234.592z M66.047,205.867c-0.4,0-0.813-0.052-1.221-0.162l-15.193-4.095
		c-2.04-0.552-3.459-2.401-3.459-4.517v-23.383c0-2.582,2.096-4.678,4.678-4.678s4.676,2.096,4.676,4.678v19.801l11.734,3.162
		c2.494,0.674,3.971,3.24,3.297,5.733C69.997,204.494,68.109,205.867,66.047,205.867z"/>
</g>
<g>
	<path fill="#FFFFFF" d="M243.382,62.318h-7.575V19.947c0-4.959-1.498-9.821-4.271-13.938l-18.988-28.124
		c-4.646-6.857-12.378-10.975-20.672-10.975h-29.434c-3.461,0-6.233,2.806-6.233,6.234v89.172h-48.204
		c4.583,3.959,7.732,9.479,8.637,15.716h50.821c1.81-12.38,12.472-21.95,25.349-21.95c12.879,0,23.512,9.57,25.318,21.95h25.254
		c1.715,0,3.118-1.403,3.118-3.118v-9.479C246.5,63.723,245.098,62.318,243.382,62.318z M212.328,11.623h-38.85
		c-1.715,0-3.117-1.373-3.117-3.119V-13.04c0-1.715,1.402-3.118,3.117-3.118h23.664c1.03,0,1.967,0.499,2.559,1.309l15.184,21.576
		C216.318,8.785,214.854,11.623,212.328,11.623z M192.811,62.318c-10.727,0-19.394,8.699-19.394,19.425
		c0,10.694,8.667,19.394,19.394,19.394c10.693,0,19.395-8.699,19.395-19.394C212.204,71.02,203.504,62.318,192.811,62.318z
		 M192.811,91.439c-5.362,0-9.697-4.364-9.697-9.695c0-5.363,4.335-9.697,9.697-9.697s9.695,4.334,9.695,9.697
		C202.506,87.075,198.173,91.439,192.811,91.439z M31.117,62.318c-1.715,0-3.118,1.404-3.118,3.119v9.479
		c0,1.715,1.403,3.118,3.118,3.118h34.857c0.904-6.236,4.053-11.755,8.605-15.716H31.117L31.117,62.318z M91.292,62.318
		c-10.694,0-19.394,8.699-19.394,19.425c0,10.694,8.699,19.394,19.394,19.394c10.726,0,19.394-8.699,19.394-19.394
		C110.686,71.02,102.018,62.318,91.292,62.318z M91.292,91.439c-5.362,0-9.696-4.364-9.696-9.695c0-5.363,4.334-9.697,9.696-9.697
		s9.696,4.334,9.696,9.697C100.988,87.075,96.654,91.439,91.292,91.439z M137.936-52.419h-36.137
		c1.777,5.269,2.713,10.913,2.713,16.743c0,29.433-23.945,53.378-53.378,53.378c-5.362,0-10.569-0.812-15.465-2.276v34.453
		c0,1.715,1.403,3.118,3.119,3.118h105.384c1.715,0,3.117-1.403,3.117-3.118v-92.943C147.289-48.241,143.109-52.419,137.936-52.419z
		 M51.141-82.826c-26.035,0-47.14,21.104-47.14,47.141c0,26.035,21.104,47.141,47.14,47.141c26.036,0,47.142-21.104,47.142-47.141
		C98.283-61.721,77.176-82.826,51.141-82.826z M51.141,0.729c-20.109,0-36.412-16.304-36.412-36.414S31.032-72.1,51.141-72.1
		c20.11,0,36.414,16.305,36.414,36.414S71.251,0.729,51.141,0.729z M65.047-27.996c-0.4,0-0.813-0.052-1.221-0.162l-15.193-4.095
		c-2.04-0.552-3.459-2.401-3.459-4.517v-23.383c0-2.582,2.096-4.678,4.678-4.678s4.676,2.096,4.676,4.678v19.801l11.734,3.162
		c2.494,0.674,3.971,3.24,3.297,5.733C68.997-29.369,67.109-27.996,65.047-27.996z"/>
</g>
</svg>
