<?xml version="1.0" encoding="utf-8"?>
<!-- Generator: Adobe Illustrator 19.2.0, SVG Export Plug-In . SVG Version: 6.00 Build 0)  -->
<svg version="1.1" id="Layer_1" xmlns="http://www.w3.org/2000/svg" xmlns:xlink="http://www.w3.org/1999/xlink" x="0px" y="0px"
	 viewBox="0 0 55 55" style="enable-background:new 0 0 55 55;" xml:space="preserve">
<style type="text/css">
	.st0{fill:#E52836;}
</style>
<title>Pearl_Thank You Page</title>
<polygon class="st0" points="22.7,37.6 14.6,29.5 16,28.1 22.7,34.8 39,18.5 40.4,19.9 "/>
<path class="st0" d="M27.5,55C12.3,55,0,42.7,0,27.5S12.3,0,27.5,0S55,12.3,55,27.5C55,42.7,42.7,55,27.5,55z M27.5,1.9
	C13.4,1.9,1.9,13.4,1.9,27.5s11.4,25.6,25.6,25.6s25.6-11.4,25.6-25.6l0,0C53.1,13.4,41.6,1.9,27.5,1.9z"/>
</svg>
