<svg id="Layer_1" data-name="Layer 1" xmlns="http://www.w3.org/2000/svg" xmlns:xlink="http://www.w3.org/1999/xlink" viewBox="0 0 391.92 96.02"><defs><style>.cls-1{fill:#231f20;}.cls-2{fill:#636466;}.cls-3{fill:url(#New_Gradient_Swatch_1);}.cls-4{fill:url(#linear-gradient);}.cls-5{fill:#fff;}</style><linearGradient id="New_Gradient_Swatch_1" x1="48" y1="1.59" x2="48" y2="95.97" gradientUnits="userSpaceOnUse"><stop offset="0" stop-color="#ed1c24"/><stop offset="0.45" stop-color="#ed1c24"/><stop offset="0.72" stop-color="#a62024"/><stop offset="0.92" stop-color="#ed1c24"/><stop offset="1" stop-color="#ed1c24"/></linearGradient><linearGradient id="linear-gradient" x1="50.58" y1="5.1" x2="50.58" y2="35.48" gradientUnits="userSpaceOnUse"><stop offset="0" stop-color="#f26767"/><stop offset="1" stop-color="#ed1c24"/></linearGradient></defs><path class="cls-1" d="M176.38,80.55v4.5h4.32v-4.5h2.19V91.66H180.7V86.74h-4.32v4.92h-2.19V80.55Z" transform="translate(-2.57 -1.28)"/><path class="cls-1" d="M192.76,88.17h-5.71a2.39,2.39,0,0,0,2.66,2.21,5,5,0,0,0,2.38-.59v1.59a7.16,7.16,0,0,1-2.75.49c-2.71,0-4.32-1.65-4.32-4.41a3.86,3.86,0,0,1,4-4.12c2.35,0,3.73,1.53,3.73,4.17ZM189,84.7c-1.06,0-1.81.78-2,2.17h3.82C190.76,85.48,190.06,84.7,189,84.7Z" transform="translate(-2.57 -1.28)"/><path class="cls-1" d="M196.66,79.69v12h-2.08v-12Z" transform="translate(-2.57 -1.28)"/><path class="cls-1" d="M201.37,95h-2.08V83.54h1.87V85.1a3.2,3.2,0,0,1,2.93-1.76c2,0,3.44,1.6,3.44,4.2s-1.49,4.29-3.46,4.29a3,3,0,0,1-2.7-1.41Zm0-7.42c0,1.66.83,2.64,2,2.64s2-1,2-2.69-.78-2.59-1.9-2.59C202.2,84.94,201.37,85.91,201.37,87.58Z" transform="translate(-2.57 -1.28)"/><path class="cls-1" d="M211.75,79.91v2h-2.14v-2Zm0,3.63v8.12h-2.08V83.54Z" transform="translate(-2.57 -1.28)"/><path class="cls-1" d="M222,91.66h-2.09V87.27c0-1.48-.5-2.19-1.6-2.19s-1.9.91-1.9,2.54v4h-2.09V83.54h1.91V85a3.1,3.1,0,0,1,2.88-1.68c1.89,0,2.89,1.18,2.89,3.48Z" transform="translate(-2.57 -1.28)"/><path class="cls-1" d="M230.31,83.54h1.94v7.12c0,3-1.49,4.48-4.51,4.48a8.12,8.12,0,0,1-2.85-.51L225,93a5.75,5.75,0,0,0,2.53.66A2.42,2.42,0,0,0,230.22,91v-.88a3.17,3.17,0,0,1-2.71,1.5c-2.08,0-3.5-1.61-3.5-4.09s1.44-4.19,3.49-4.19a3.11,3.11,0,0,1,2.81,1.6Zm-4.09,3.89c0,1.62.8,2.58,1.93,2.58s2-1,2-2.48c0-1.65-.8-2.61-2-2.61S226.22,85.88,226.22,87.43Z" transform="translate(-2.57 -1.28)"/><path class="cls-1" d="M241,83.54l2,6.21,2-6.21h2.09L243.86,92c-.8,2.14-1.63,3.11-3.45,3.11a7.54,7.54,0,0,1-1.19-.12l.18-1.64a2.32,2.32,0,0,0,.67.12c.85,0,1.36-.48,1.86-1.55l-3.2-8.41Z" transform="translate(-2.57 -1.28)"/><path class="cls-1" d="M256.55,87.59a4.31,4.31,0,0,1-8.62,0,4.31,4.31,0,0,1,8.62,0Zm-6.45,0c0,1.66.9,2.72,2.13,2.72s2.13-1,2.13-2.72-.88-2.74-2.13-2.74S250.1,85.91,250.1,87.58Z" transform="translate(-2.57 -1.28)"/><path class="cls-1" d="M260.57,83.54v4.31c0,1.49.49,2.19,1.6,2.19s1.9-1,1.9-2.88V83.54h2.1v8.12h-1.91V90.11a3.11,3.11,0,0,1-2.88,1.68c-1.88,0-2.91-1.19-2.91-3.49V83.54Z" transform="translate(-2.57 -1.28)"/><path class="cls-1" d="M273.74,85.3a2.25,2.25,0,0,0-.72-.11c-1.36,0-2.12.92-2.12,2.68v3.79h-2.08V83.54h1.88v1.62a2.54,2.54,0,0,1,2.4-1.81,4.26,4.26,0,0,1,.72.08Z" transform="translate(-2.57 -1.28)"/><path class="cls-1" d="M282.39,79.69v5.07a3,3,0,0,1,2.67-1.42c2.08,0,3.48,1.6,3.48,4.12s-1.48,4.33-3.48,4.33A3.14,3.14,0,0,1,282.18,90v1.63H280.3v-12Zm0,7.87c0,1.63.82,2.63,2,2.63s1.95-1,1.95-2.58-.8-2.71-1.89-2.71C283.22,84.9,282.39,85.88,282.39,87.56Z" transform="translate(-2.57 -1.28)"/><path class="cls-1" d="M292.63,83.54v4.31c0,1.49.5,2.19,1.6,2.19s1.9-1,1.9-2.88V83.54h2.1v8.12h-1.9V90.11a3.12,3.12,0,0,1-2.88,1.68c-1.89,0-2.91-1.19-2.91-3.49V83.54Z" transform="translate(-2.57 -1.28)"/><path class="cls-1" d="M305.88,85.34a4.48,4.48,0,0,0-2.1-.55c-.76,0-1.16.26-1.16.72s.59.8,1.48,1.2c1.52.67,2.29,1.28,2.29,2.51,0,1.51-1.26,2.52-3.44,2.52a7.51,7.51,0,0,1-2.51-.42l.11-1.6a5.39,5.39,0,0,0,2.39.58c.84,0,1.29-.31,1.29-.79s-.62-.91-1.65-1.42c-1.29-.64-2-1.19-2-2.34,0-1.36,1.23-2.3,3.28-2.3a7.48,7.48,0,0,1,2.22.35Z" transform="translate(-2.57 -1.28)"/><path class="cls-1" d="M310.49,79.91v2h-2.15v-2Zm0,3.63v8.12h-2.08V83.54Z" transform="translate(-2.57 -1.28)"/><path class="cls-1" d="M320.76,91.66h-2.1V87.27c0-1.48-.49-2.19-1.6-2.19s-1.9.91-1.9,2.54v4h-2.08V83.54H315V85a3.1,3.1,0,0,1,2.88-1.68c1.89,0,2.9,1.18,2.9,3.48Z" transform="translate(-2.57 -1.28)"/><path class="cls-1" d="M330.44,88.17h-5.71a2.38,2.38,0,0,0,2.65,2.21,5,5,0,0,0,2.39-.59v1.59a7.25,7.25,0,0,1-2.76.49c-2.7,0-4.31-1.65-4.31-4.41a3.86,3.86,0,0,1,4-4.12c2.35,0,3.73,1.53,3.73,4.17ZM326.7,84.7c-1.06,0-1.81.78-2,2.17h3.82C328.44,85.48,327.74,84.7,326.7,84.7Z" transform="translate(-2.57 -1.28)"/><path class="cls-1" d="M337.29,85.34a4.51,4.51,0,0,0-2.1-.55c-.77,0-1.17.26-1.17.72s.6.8,1.49,1.2c1.52.67,2.29,1.28,2.29,2.51,0,1.51-1.26,2.52-3.44,2.52a7.47,7.47,0,0,1-2.51-.42l.11-1.6a5.35,5.35,0,0,0,2.38.58c.85,0,1.3-.31,1.3-.79S335,88.6,334,88.09c-1.29-.64-2.05-1.19-2.05-2.34,0-1.36,1.24-2.3,3.28-2.3a7.49,7.49,0,0,1,2.23.35Z" transform="translate(-2.57 -1.28)"/><path class="cls-1" d="M344.81,85.34a4.51,4.51,0,0,0-2.1-.55c-.77,0-1.17.26-1.17.72s.59.8,1.49,1.2c1.52.67,2.29,1.28,2.29,2.51,0,1.51-1.27,2.52-3.44,2.52a7.47,7.47,0,0,1-2.51-.42l.11-1.6a5.35,5.35,0,0,0,2.38.58c.85,0,1.3-.31,1.3-.79s-.63-.91-1.65-1.42c-1.29-.64-2.05-1.19-2.05-2.34,0-1.36,1.23-2.3,3.28-2.3a7.49,7.49,0,0,1,2.23.35Z" transform="translate(-2.57 -1.28)"/><path class="cls-1" d="M358.09,83.54H360v7.12c0,3-1.48,4.48-4.51,4.48a8.2,8.2,0,0,1-2.85-.51l.13-1.68a5.78,5.78,0,0,0,2.53.66A2.42,2.42,0,0,0,358,91v-.88a3.15,3.15,0,0,1-2.7,1.5c-2.08,0-3.51-1.61-3.51-4.09s1.44-4.19,3.49-4.19a3.13,3.13,0,0,1,2.82,1.6ZM354,87.43c0,1.62.8,2.58,1.94,2.58s2-1,2-2.48c0-1.65-.8-2.61-2-2.61S354,85.88,354,87.43Z" transform="translate(-2.57 -1.28)"/><path class="cls-1" d="M367.48,85.3a2.25,2.25,0,0,0-.72-.11c-1.36,0-2.11.92-2.11,2.68v3.79h-2.08V83.54h1.87v1.62a2.54,2.54,0,0,1,2.4-1.81,4.05,4.05,0,0,1,.72.08Z" transform="translate(-2.57 -1.28)"/><path class="cls-1" d="M377.19,87.59a4.31,4.31,0,0,1-8.62,0,4.31,4.31,0,0,1,8.62,0Zm-6.45,0c0,1.66.9,2.72,2.13,2.72s2.13-1,2.13-2.72-.88-2.74-2.13-2.74S370.74,85.91,370.74,87.58Z" transform="translate(-2.57 -1.28)"/><path class="cls-1" d="M380.53,83.54,382,89.3a8.44,8.44,0,0,1,.16,1.3c.07-.73.13-1.17.16-1.28l1.59-5.78h2.53L388,89.35a9.31,9.31,0,0,1,.14,1.25c0-.69.08-1.12.11-1.23l1.56-5.83h2l-2.58,8.12h-2.38l-1.63-6.07a4.94,4.94,0,0,1-.15-1.12,8.92,8.92,0,0,1-.14,1.09l-1.67,6.1h-2.41l-2.53-8.12Z" transform="translate(-2.57 -1.28)"/><path class="cls-1" d="M394.49,89.58v2.08h-2.08V89.58Z" transform="translate(-2.57 -1.28)"/><path class="cls-2" d="M156.58,27V51c0,6.71,1.62,10,6,10s6.49-3.38,6.49-10V27h9.52V51c0,12.11-5.3,18.16-16,18.16s-16-6.11-16-18.16V27Z" transform="translate(-2.57 -1.28)"/><path class="cls-2" d="M200.25,27c9.79,0,14.66,3.38,14.66,10.74,0,5.29-2.59,8.85-7.41,10,3,1.19,3.73,3.56,4.76,6.77l4.49,13.71H206.31L203,56.92c-1.14-3.85-2.82-4.8-6.44-4.8h-1.46V68.26h-9.8V27Zm-5.14,17.81h3.52c4.32,0,6.49-1.73,6.49-5.17,0-3.8-2.44-5.4-7.52-5.4h-2.49Z" transform="translate(-2.57 -1.28)"/><path class="cls-2" d="M245.16,27v7.83H230.5v8.79h14v7.83h-14V68.2H220.43V27Z" transform="translate(-2.57 -1.28)"/><path class="cls-2" d="M287.77,36a16.73,16.73,0,0,0-9.23-2.8c-7.74,0-12.63,5.3-12.63,13.6S271,60.45,278.7,60.45A21,21,0,0,0,288.16,58l.61,9.52a38.36,38.36,0,0,1-11.12,1.65c-14.07,0-22.25-8.36-22.25-22.39,0-13.36,8.18-22,21.47-22a28.31,28.31,0,0,1,11.79,2.32Z" transform="translate(-2.57 -1.28)"/><path class="cls-2" d="M316,27,330.22,68.2H319.5l-2.65-8.72H302.4l-2.81,8.72h-9.91L303.92,27ZM304.89,51.64h9.58l-4.71-15.43Z" transform="translate(-2.57 -1.28)"/><path class="cls-2" d="M346.94,27c9.79,0,14.66,3.38,14.66,10.74,0,5.29-2.6,8.85-7.41,10,3,1.19,3.73,3.56,4.76,6.77l4.49,13.71H353l-3.3-11.34c-1.14-3.85-2.82-4.8-6.44-4.8H341.8V68.26H332V27ZM341.8,44.82h3.51c4.33,0,6.5-1.73,6.5-5.17,0-3.8-2.44-5.4-7.53-5.4H341.8Z" transform="translate(-2.57 -1.28)"/><path class="cls-2" d="M393.2,27v7.72H377.13V43h15.15v7.83H377.13v9.38H393.8v8H367.12V27Z" transform="translate(-2.57 -1.28)"/><path class="cls-2" d="M142.57,26.07l.72,8.66a28.06,28.06,0,0,0-3.65-.3h-6.51V67.84H123V34.43h-6.9a30.67,30.67,0,0,0-3.26.3l.72-8.66Z" transform="translate(-2.57 -1.28)"/><rect class="cls-3" width="96" height="96" rx="10.9"/><path class="cls-4" d="M6.12,38V13.35c0-4.7,4.21-8.51,9.41-8.51H85.62c5.2,0,9.41,3.81,9.41,8.51V38Z" transform="translate(-2.57 -1.28)"/><path class="cls-5" d="M50.85,97.29a100.34,100.34,0,0,0-3-27,94.14,94.14,0,0,0-7.44-20.22V26.84H25.55c-4.26,0-8.19.37-10.31,1.81l2.24-14.81H86.29l2.36,14.81c-1.24-1.24-6.77-1.81-10.43-1.81H63.42v59c0,4.08-.13,6.77,1.48,11.43Z" transform="translate(-2.57 -1.28)"/><path class="cls-5" d="M31.53,97.3C30.24,79.21,13.31,66.82,13.31,66.82,24.69,80.68,25.51,92.31,25.19,97.3Z" transform="translate(-2.57 -1.28)"/><path class="cls-5" d="M40.37,97.3C39.23,69.37,16.9,50.1,16.9,50.1,32.36,72.27,32.68,90.6,32.13,97.3Z" transform="translate(-2.57 -1.28)"/><path class="cls-5" d="M50.24,97.3c-1.3-36.19-26.55-61.2-26.55-61.2C41.26,65,41.56,88.78,41,97.3Z" transform="translate(-2.57 -1.28)"/></svg>