<?xml version="1.0" encoding="utf-8"?>
<!-- Generator: Adobe Illustrator 24.3.0, SVG Export Plug-In . SVG Version: 6.00 Build 0)  -->
<svg version="1.1" id="Layer_1" xmlns="http://www.w3.org/2000/svg" xmlns:xlink="http://www.w3.org/1999/xlink" x="0px" y="0px"
	 viewBox="0 0 391.9 96" style="enable-background:new 0 0 391.9 96;" xml:space="preserve">
<style type="text/css">
	.st0{fill:#636466;}
	.st1{fill:url(#SVGID_1_);}
	.st2{fill:url(#SVGID_2_);}
	.st3{fill:#FFFFFF;}
</style>
<path class="st0" d="M154,25.7v24c0,6.7,1.6,10,6,10s6.5-3.4,6.5-10v-24h9.5v24c0,12.1-5.3,18.2-16,18.2s-16-6.1-16-18.2v-24H154z"
	/>
<path class="st0" d="M197.7,25.7c9.8,0,14.7,3.4,14.7,10.7c0,5.3-2.6,8.8-7.4,10c3,1.2,3.7,3.6,4.8,6.8l4.5,13.7h-10.4l-3.3-11.3
	c-1.1-3.8-2.8-4.8-6.4-4.8h-1.5V67h-9.8V25.7H197.7z M192.5,43.5h3.5c4.3,0,6.5-1.7,6.5-5.2c0-3.8-2.4-5.4-7.5-5.4h-2.5V43.5z"/>
<path class="st0" d="M242.6,25.7v7.8h-14.7v8.8h14v7.8h-14v16.7h-10.1V25.7H242.6z"/>
<path class="st0" d="M285.2,34.7c-2.7-1.8-5.9-2.8-9.2-2.8c-7.7,0-12.6,5.3-12.6,13.6s5.1,13.6,12.8,13.6c3.3-0.1,6.5-0.9,9.5-2.5
	l0.6,9.5c-3.6,1.1-7.4,1.6-11.1,1.7c-14.1,0-22.2-8.4-22.2-22.4c0-13.4,8.2-22,21.5-22c4.1-0.1,8.1,0.7,11.8,2.3L285.2,34.7z"/>
<path class="st0" d="M313.4,25.7l14.2,41.2h-10.7l-2.6-8.7h-14.5l-2.8,8.7h-9.9l14.2-41.2H313.4z M302.3,50.4h9.6l-4.7-15.4
	L302.3,50.4z"/>
<path class="st0" d="M344.4,25.7c9.8,0,14.7,3.4,14.7,10.7c0,5.3-2.6,8.8-7.4,10c3,1.2,3.7,3.6,4.8,6.8l4.5,13.7h-10.4l-3.3-11.3
	c-1.1-3.8-2.8-4.8-6.4-4.8h-1.5V67h-9.8V25.7H344.4z M339.2,43.5h3.5c4.3,0,6.5-1.7,6.5-5.2c0-3.8-2.4-5.4-7.5-5.4h-2.5V43.5z"/>
<path class="st0" d="M390.6,25.7v7.7h-16.1v8.3h15.1v7.8h-15.1v9.4h16.7v8h-26.7V25.7H390.6z"/>
<path class="st0" d="M140,24.8l0.7,8.7c-1.2-0.2-2.4-0.3-3.6-0.3h-6.5v33.4h-10.1V33.2h-6.9c-1.1,0-2.2,0.1-3.3,0.3l0.7-8.7H140z"/>
<linearGradient id="SVGID_1_" gradientUnits="userSpaceOnUse" x1="48" y1="93.41" x2="48" y2="-0.97" gradientTransform="matrix(1 0 0 -1 0 95)">
	<stop  offset="0" style="stop-color:#ED1C24"/>
	<stop  offset="0.45" style="stop-color:#ED1C24"/>
	<stop  offset="0.72" style="stop-color:#A62024"/>
	<stop  offset="0.92" style="stop-color:#ED1C24"/>
	<stop  offset="1" style="stop-color:#ED1C24"/>
</linearGradient>
<path class="st1" d="M10.9,0h74.2C91.1,0,96,4.9,96,10.9v74.2c0,6-4.9,10.9-10.9,10.9H10.9C4.9,96,0,91.1,0,85.1V10.9
	C0,4.9,4.9,0,10.9,0z"/>
<linearGradient id="SVGID_2_" gradientUnits="userSpaceOnUse" x1="50.575" y1="89.9" x2="50.575" y2="59.52" gradientTransform="matrix(1 0 0 -1 -2.57 93.72)">
	<stop  offset="0" style="stop-color:#F26767"/>
	<stop  offset="1" style="stop-color:#ED1C24"/>
</linearGradient>
<path class="st2" d="M3.5,36.7V12.1c0-4.7,4.2-8.5,9.4-8.5h70.1c5.2,0,9.4,3.8,9.4,8.5v24.7H3.5z"/>
<path class="st3" d="M48.3,96c0.2-9.1-0.8-18.2-3-27c-1.7-7-4.2-13.8-7.4-20.2V25.6H23c-4.3,0-8.2,0.4-10.3,1.8l2.2-14.8h68.8
	l2.4,14.8c-1.2-1.2-6.8-1.8-10.4-1.8H60.8v59c0,4.1-0.1,6.8,1.5,11.4L48.3,96z"/>
<path class="st3" d="M29,96c-1.3-18.1-18.2-30.5-18.2-30.5C22.1,79.4,22.9,91,22.6,96H29z"/>
<path class="st3" d="M37.8,96c-1.1-27.9-23.5-47.2-23.5-47.2C29.8,71,30.1,89.3,29.6,96H37.8z"/>
<path class="st3" d="M47.7,96c-1.3-36.2-26.5-61.2-26.5-61.2C38.7,63.7,39,87.5,38.4,96H47.7z"/>
</svg>
